<?xml version="1.0" encoding="utf-8"?>
<!-- Generator: Adobe Illustrator 16.0.0, SVG Export Plug-In . SVG Version: 6.00 Build 0)  -->
<!DOCTYPE svg PUBLIC "-//W3C//DTD SVG 1.1//EN" "http://www.w3.org/Graphics/SVG/1.1/DTD/svg11.dtd">
<svg version="1.1" id="Layer_1" xmlns="http://www.w3.org/2000/svg" xmlns:xlink="http://www.w3.org/1999/xlink" x="0px" y="0px"
	 width="64px" height="64px" viewBox="0 0 64 64" enable-background="new 0 0 64 64" xml:space="preserve">
<g id="Rectangle_21_1_">
	<g>
		<path fill="#ABD7A4" d="M31.001,1h-30v30l33,32l29-29L31.001,1z M14.001,17c-1.657,0-3-1.343-3-3s1.343-3,3-3s3,1.343,3,3
			S15.658,17,14.001,17z"/>
	</g>
</g>
<g id="Rectangle_22_1_">
	<g>
		
			<rect x="19.152" y="19.151" transform="matrix(0.7071 -0.7071 0.7071 0.7071 -14.083 34.0007)" fill="#D5EACD" width="29.698" height="29.698"/>
	</g>
</g>
<g id="Ellipse_3_1_">
	<g>
		<path fill="#84BB82" d="M14.001,7c-3.866,0-7,3.134-7,7s3.134,7,7,7s7-3.134,7-7S17.867,7,14.001,7z M14.001,17
			c-1.657,0-3-1.343-3-3s1.343-3,3-3s3,1.343,3,3S15.658,17,14.001,17z"/>
	</g>
</g>
<g id="Rounded_Rectangle_50_1_">
	<g>
		<path fill="#2B3139" d="M12.564,35.387l20.02,20.019c0.773,0.774,2.029,0.774,2.804,0l20.019-20.019
			c0.774-0.774,0.774-2.03,0-2.804l-20.019-20.02c-0.774-0.774-2.03-0.774-2.804,0l-20.02,20.02
			C11.79,33.356,11.79,34.612,12.564,35.387z M34.001,14l20,20l-20,20l-20-20L34.001,14z M22.001,14c0-4.418-3.582-8-8-8
			s-8,3.582-8,8s3.582,8,8,8S22.001,18.418,22.001,14z M8.001,14c0-3.313,2.687-6,6-6s6,2.687,6,6s-2.687,6-6,6
			S8.001,17.313,8.001,14z M63.396,32.557L31.412,0.573c-0.019-0.019-0.044-0.024-0.063-0.042c-0.158-0.146-0.336-0.267-0.534-0.355
			c-0.07-0.031-0.14-0.051-0.212-0.073c-0.143-0.046-0.29-0.074-0.443-0.087c-0.09-0.008-0.176-0.02-0.266-0.016H2.001
			c-1.104,0-2,0.896-2,2v27.893c-0.004,0.09,0.008,0.176,0.016,0.266c0.013,0.153,0.041,0.301,0.087,0.443
			c0.023,0.072,0.042,0.142,0.073,0.212c0.089,0.198,0.21,0.376,0.355,0.534c0.018,0.02,0.023,0.045,0.042,0.063l31.983,31.984
			c0.788,0.788,2.066,0.788,2.854,0l27.984-27.984C64.185,34.623,64.185,33.345,63.396,32.557z M34.001,62l-32-32V2h28l32,32
			L34.001,62z M18.001,14c0-2.209-1.791-4-4-4s-4,1.791-4,4s1.791,4,4,4S18.001,16.209,18.001,14z M12.001,14c0-1.104,0.896-2,2-2
			s2,0.896,2,2s-0.896,2-2,2S12.001,15.104,12.001,14z M34.293,37.817l-1.804,1.835c2.185,1.834,4.306,1.77,6.325,0l0.151,0.044
			l1.143,1.143c0.201,0.202,0.529,0.202,0.731,0s0.202-0.53,0-0.731l-1.25-1.25c2.325-2.726,1.216-5.163,0.495-5.896
			c-0.852-0.866-2.312-2.248-5.475-0.427c-0.292,0.168-0.559,0.336-0.812,0.491l-2.248-2.287c0.571-0.581,1.588-0.504,2.273,0.168
			l1.804-1.834c-1.854-1.68-3.887-1.214-5.563,0.155l-0.132-0.028l-1.07-1.07c-0.202-0.202-0.529-0.202-0.731,0
			s-0.202,0.529,0,0.731l1.16,1.16c-1.415,1.64-1.934,3.972-0.204,5.73c1.688,1.718,3.454,0.93,5.067-0.013
			c0.203-0.13,0.394-0.246,0.521-0.298l2.655,2.7C36.401,38.773,35.22,38.786,34.293,37.817z M30.711,33.735
			c-0.692-0.704-0.485-1.636,0.075-2.218l1.787,1.786l0.297,0.303C31.867,34.239,31.271,34.304,30.711,33.735z M36.12,35.388
			l-0.48-0.489c1.282-0.736,1.893-0.865,2.565-0.181c0.806,0.819,0.438,1.942-0.113,2.642L36.12,35.388z"/>
	</g>
</g>
</svg>
